<svg id="ground" xmlns="http://www.w3.org/2000/svg" viewBox="0 0 790.65 154.87"><defs><style>.cls-1{fill:#c35252;}.cls-2{fill:#fff;}.cls-3{fill:#48459a;}</style></defs><title>charch-man</title><ellipse class="cls-1" cx="755.46" cy="45.2" rx="5.06" ry="6.13"/><path class="cls-1" d="M960.46,906.56c0,6.45-3.5,30.82-7.82,30.82s-7.83-24.37-7.83-30.82,3.51-11.67,7.83-11.67S960.46,900.11,960.46,906.56Z" transform="translate(-197.81 -841.23)"/><ellipse class="cls-2" cx="783.46" cy="45.2" rx="5.06" ry="6.13"/><path class="cls-2" d="M988.46,906.56c0,6.45-3.5,30.82-7.82,30.82s-7.83-24.37-7.83-30.82,3.51-11.67,7.83-11.67S988.46,900.11,988.46,906.56Z" transform="translate(-197.81 -841.23)"/><ellipse class="cls-2" cx="642.83" cy="45.8" rx="4.21" ry="5.09"/><path class="cls-2" d="M846.62,903.77c0,5.36-2.91,25.61-6.5,25.61s-6.5-20.25-6.5-25.61,2.91-9.7,6.5-9.7S846.62,898.41,846.62,903.77Z" transform="translate(-197.81 -841.23)"/><ellipse class="cls-1" cx="488.26" cy="9.93" rx="1.67" ry="2.03"/><path class="cls-1" d="M688.45,857.81c0,2.13-1.16,10.19-2.59,10.19s-2.58-8.06-2.58-10.19,1.15-3.86,2.58-3.86S688.45,855.68,688.45,857.81Z" transform="translate(-197.81 -841.23)"/><ellipse class="cls-3" cx="379.77" cy="78.52" rx="2.1" ry="2.55"/><path class="cls-3" d="M580.56,928.12c0,2.68-1.45,12.81-3.25,12.81s-3.25-10.13-3.25-12.81,1.46-4.85,3.25-4.85S580.56,925.44,580.56,928.12Z" transform="translate(-197.81 -841.23)"/><ellipse class="cls-1" cx="388.29" cy="70.03" rx="2.28" ry="2.75"/><path class="cls-1" d="M589.33,920.31c0,2.89-1.58,13.85-3.52,13.85s-3.51-11-3.51-13.85,1.57-5.25,3.51-5.25S589.33,917.41,589.33,920.31Z" transform="translate(-197.81 -841.23)"/><ellipse class="cls-3" cx="543.29" cy="39.93" rx="2.1" ry="2.55"/><path class="cls-3" d="M744.08,889.53c0,2.68-1.45,12.8-3.25,12.8s-3.25-10.12-3.25-12.8,1.46-4.85,3.25-4.85S744.08,886.85,744.08,889.53Z" transform="translate(-197.81 -841.23)"/><ellipse class="cls-3" cx="520.44" cy="2.75" rx="2.27" ry="2.75"/><path class="cls-3" d="M721.47,853c0,2.89-1.57,13.83-3.51,13.83s-3.51-10.94-3.51-13.83,1.57-5.24,3.51-5.24S721.47,850.12,721.47,853Z" transform="translate(-197.81 -841.23)"/><ellipse class="cls-2" cx="8.45" cy="101.72" rx="5.06" ry="6.39"/><path class="cls-2" d="M213.45,964c0,6.72-3.5,32.14-7.82,32.14s-7.82-25.42-7.82-32.14,3.5-12.18,7.82-12.18S213.45,957.22,213.45,964Z" transform="translate(-197.81 -841.23)"/><ellipse class="cls-1" cx="54.03" cy="103.55" rx="2.73" ry="3.45"/><path class="cls-1" d="M255.72,956.11c0,3.62-1.89,17.33-4.22,17.33s-4.22-13.71-4.22-17.33,1.89-6.57,4.22-6.57S255.72,952.48,255.72,956.11Z" transform="translate(-197.81 -841.23)"/></svg>