<?xml version="1.0" encoding="utf-8"?>
<!-- Generator: Adobe Illustrator 16.0.0, SVG Export Plug-In . SVG Version: 6.00 Build 0)  -->
<!DOCTYPE svg PUBLIC "-//W3C//DTD SVG 1.1//EN" "http://www.w3.org/Graphics/SVG/1.1/DTD/svg11.dtd">
<svg version="1.1" id="radio" xmlns="http://www.w3.org/2000/svg" xmlns:xlink="http://www.w3.org/1999/xlink" x="0px" y="0px"
	 width="426px" height="424px" viewBox="0 0 426 424" enable-background="new 0 0 426 424" xml:space="preserve">
<rect id="f" x="13" y="12" fill="none" stroke="#666666" stroke-width="10" stroke-miterlimit="10" width="402" height="401"/>
<path id="radio_x5F_cir_1_" fill="#666666" stroke="#666666" stroke-width="10" stroke-miterlimit="10" d="M415,12c0,0,0,0-402,0
	c0,246.939,213.966,401,402,401C415,314.122,415,12,415,12z"/>
<path id="body" fill="#29ABE2" d="M135.025,404h50.701l-69.769-104.885c6.989-4.323,11.635-11.978,11.635-20.685
	c0-13.489-11.141-24.431-24.884-24.431c-13.742,0-24.883,10.931-24.883,24.419c0,8.503,4.431,16.018,11.146,20.391L19,404h50.516
	l3.507-8h58.514L135.025,404z"/>
<path id="body_x5F_lora" fill="#00FFFF" d="M105.355,157.028c-26.93,22.867-21.542,73.47,12.038,113.03
	c33.579,39.558,82.634,53.095,109.572,30.236L105.355,157.028z"/>
<path id="lora_x5F_s" fill="#FFFFFF" d="M246.716,256.034c-4.637,3.926-11.141,3.865-14.529-0.136l-74.163-87.581
	c-3.388-4-2.375-10.426,2.261-14.352l0,0c4.636-3.926,11.141-3.866,14.528,0.135l74.164,87.581
	C252.364,245.683,251.352,252.108,246.716,256.034L246.716,256.034z"/>
<path id="lora_x5F_m" fill="#FFFFFF" d="M298.573,243.578c-4.637,3.926-12.085,2.752-16.639-2.625l-99.659-117.69
	c-4.553-5.376-4.484-12.917,0.152-16.842l0,0c4.636-3.926,12.085-2.75,16.637,2.625l99.66,117.69
	C303.277,232.113,303.209,239.652,298.573,243.578L298.573,243.578z"/>
<path id="lora_x5F_l" fill="#FFFFFF" d="M362.843,227.517c-4.637,3.925-13.373,1.229-19.515-6.023L208.881,62.723
	c-6.141-7.252-7.36-16.314-2.723-20.24l0,0c4.635-3.926,13.371-1.229,19.513,6.023l134.446,158.77
	C366.259,214.529,367.479,223.59,362.843,227.517L362.843,227.517z"/>
</svg>
