<?xml version="1.0" encoding="utf-8"?>
<!-- Generator: Adobe Illustrator 22.0.1, SVG Export Plug-In . SVG Version: 6.00 Build 0)  -->
<svg version="1.1" id="圖層_1" xmlns="http://www.w3.org/2000/svg" xmlns:xlink="http://www.w3.org/1999/xlink" x="0px" y="0px"
	 viewBox="0 0 285 151" style="enable-background:new 0 0 285 151;" xml:space="preserve">
<style type="text/css">
	.st0{fill:none;stroke:#000000;stroke-miterlimit:10;}
	.st1{fill:#EF3940;}
</style>
<g>
	<g>
		<path class="st0" d="M48.4,116.7"/>
	</g>
</g>
<g>
	<g>
		<g>
			<g>
				<g>
					<path class="st1" d="M143.3,139.8c0,1.2,1,3.5,1.6,2.8l-0.8-4.3L143.3,139.8z"/>
					<path class="st1" d="M151.3,145.4c0.2-2.3,0-6.1-2-9.6c0.6,4.2-0.2,2.7,0.5,7.7c-0.6,0.8-1.9-0.8-2.3-2.3
						c0.1,1.1-1.5-0.5-1.1,2.2c2.1,2.8,3.6,2.5,4-0.7C151,143.5,151.1,144.6,151.3,145.4z"/>
					<path class="st1" d="M230.7,114l-0.7-0.2C230.2,114,230.5,114.1,230.7,114z"/>
					<path class="st1" d="M271.5,73.6c0,0.5,0.4,0.8,0.8,0.9C272.1,74,271.9,73.5,271.5,73.6z"/>
					<path class="st1" d="M276.1,61.3c-0.1,0.3-0.1,0.5-0.2,0.8C276.3,61.7,276.4,61.4,276.1,61.3z"/>
					<path class="st1" d="M230.7,114l1.9,0.5C232,113.3,231.4,114,230.7,114z"/>
					<path class="st1" d="M158,131.5c-0.2,0.3-0.2,0.8-0.2,1.3c0.1-0.3,0.3-0.5,0.5-0.7C158.1,131.9,158.1,131.7,158,131.5z"/>
					<path class="st1" d="M211.8,128l-0.4,0.2c0.1,0.5,0.3,1.1,0.5,1.7L211.8,128z"/>
					<path class="st1" d="M196.1,136.8c0.4,0-1.1-3.4-1.7-4.9c0.5,1.4,0.5,2.2,0.3,2.6C195.1,135.2,195.5,136,196.1,136.8z"/>
					<path class="st1" d="M167.6,143.4l-0.3,0.7C167.4,143.9,167.5,143.7,167.6,143.4z"/>
					<path class="st1" d="M223.4,122.7c0.3,0.5,0.6,0.9,0.8,1.1C224,123.4,223.7,123.1,223.4,122.7z"/>
					<path class="st1" d="M136.4,105.4c0.1,0.2,0.2,0.4,0.3,0.6C136.6,105.7,136.6,105.4,136.4,105.4z"/>
					<path class="st1" d="M162.4,113.9l-0.2,0.3c0.2,0.6,0.5,1.3,0.8,1.9L162.4,113.9z"/>
					<path class="st1" d="M271.3,38.1c0,0.1,0,0.1,0,0.1C272,38.5,271.7,38.2,271.3,38.1z"/>
					<path class="st1" d="M111.2,9.9c2.1,3.1-2.4,4.5,0.6,7.8C111.4,16.3,113.6,11.8,111.2,9.9z"/>
					<path class="st1" d="M158.6,131.7c0.2-0.1,0.4-0.3,0.6-0.3C158.9,131.4,158.7,131.5,158.6,131.7z"/>
					<path class="st1" d="M111.8,17.7L111.8,17.7l0.3,0.3C112,17.9,111.9,17.8,111.8,17.7z"/>
					<path class="st1" d="M229.6,13.3c-0.1,0.6,0,1.2,0,1.7C229.7,14.6,229.7,14.1,229.6,13.3z"/>
					<path class="st1" d="M257.4,33.5c-0.1-0.3-0.2-0.6-0.3-0.9C257.1,33,257.2,33.3,257.4,33.5z"/>
					<path class="st1" d="M212.7,15.1c-0.4-0.3-0.4-0.9-1-0.5c0,0.2,0.1,0.3,0.1,0.5C212,14.6,212.3,14.5,212.7,15.1z"/>
					<path class="st1" d="M197,13.2c0.1,0.3,0.1,0.5,0.2,0.8c0.2-0.1,0.4-0.1,0.5-0.1L197,13.2z"/>
					<path class="st1" d="M96.3,117.6c0.5,1,0.8,2.1,1.1,3.2C96.9,118.2,98.9,117,96.3,117.6z"/>
					<path class="st1" d="M158.8,133.3c-0.3-0.9-0.4-1.3-0.2-1.6c-0.1,0.1-0.3,0.2-0.4,0.4C158.4,132.6,158.6,133.1,158.8,133.3z"/>
					<path class="st1" d="M207.8,43.5c-0.7-0.3-1.4-0.6-2.1-0.8C206.2,43.1,207,43.4,207.8,43.5z"/>
					<path class="st1" d="M42.7,76.5L43,77C43.1,76.9,43,76.7,42.7,76.5z"/>
					<path class="st1" d="M198.8,42.4c-0.3-1.3-0.6-2.1-1-2.7c-0.1,0.3-0.3,0.5-0.4,0.9L198.8,42.4z"/>
					<path class="st1" d="M97.5,120.8C97.4,120.8,97.4,120.8,97.5,120.8C97.4,120.8,97.4,120.8,97.5,120.8z"/>
					<path class="st1" d="M110.7,109.9c-2,0.3,0,4.8,0.1,7.6c-2.2,1.8-1.8-3.3-3.1-5.5c-1.3,1.5-1.8,6.1-3,6.1c-0.2-0.8-0.5-1-0.4-2
						c-0.5,2-1.8,2.2-3.1,2.6c-1.3,0.4-2.6,0.8-3.3,3.3c-0.2-0.4-0.3-0.8-0.4-1.1c0.6,2.3,1,4.8,1.2,6.5c-1,0.2-1.5,3.3-2.3,0.2
						c0.6,0,0.5-1.3,0.7-2.3l-0.9,1.5c-1.5-4.4,1.2-1.7,0.8-5c-1.8,1.7-3.8,5.7-5.6,4.6c-0.8-4.3,3.5-1.9,1-5.6l2.6,1.4
						c-2.7-6.7,1.5,0.3-1.1-6.9c-1.6-0.4-2.5,0.2-3.3,0.9c-0.4,0.3-0.8,0.7-1.3,0.9c-0.3,0.1-0.5,0.2-0.9,0.2c-0.1,0-0.2,0-0.2,0
						c0,0-0.1,0-0.1,0c-0.1,0-0.1-0.1-0.2-0.2c0,1.2,0.1,2.1,0.1,3c0.1,0.9,0.2,1.8,0.1,3c-0.5,1.1-1,0.9-1.2,0.2
						c-0.4-0.8-0.6-2.2-0.7-3.5c-0.3-2.6-0.4-5.1-2.2-2.4c-1.1,2.8-2.4,8.3-4.1,5l1.6-4.8c-2.6-1-3,6.8-5.2,2.8
						c1-1.8,2.5-1.1,2.2-1.8c-1-4.3-1.9,2.5-3.4,2.1l0.7-4.4c-3,0-7.1,2.1-10.6,1.8c0.6-1.2,1.6-2.3,1.3-3.8
						c-2.3,0.4-4.3-0.6-5.8-2.1c-1.6-1.5-2.7-3.6-3.4-5.5c-1,0.9-2,1.8-3,2.6c-0.2-0.2,0.5-1.7,1.1-2.2c-0.2-1.9-1.4,2-2.7,2.9
						c-0.8-0.2,0.5-2.3,1.5-3c-1.7,0.8-4,1.2-5.6,0.9c-0.4-0.1-0.7-0.2-1-0.4c-0.3-0.2-0.5-0.4-0.6-0.7c-0.3-0.6-0.3-1.5,0.2-2.6
						l1.2-0.3c0.1-0.6-0.4-0.7-1-0.6c-0.7,0.1-1.6,0.3-2.4,0.6c-1.7,0.5-3.3,0.7-2.2-1.1l0.8,0c-0.4-2.3-1.8-4.3-2.6-6.4
						c-0.8-2.1-0.9-4.4,1.6-6.6c-1.4,0.2-2,0-2.2-0.4c-0.2-0.4-0.1-0.9,0-1.4c0.2-1,0.1-1.9-3.7-1.6c1.8-1.4,3-1.9,4.1-2.5
						c0.6-0.3,1.1-0.5,1.6-0.9c0.5-0.4,1.1-0.8,1.8-1.4c0.2-0.3-1-0.6-2.3-1.1c-1.3-0.4-2.7-0.9-3.1-1.5l4,0.5
						c-1.3-0.6-2.7-1.3-3.9-2c1.6,0.1,3.2,0.2,4.9,0.3L43,77c-0.3,0.3-1.9,0.3-3,0c-0.4-0.5-0.3-0.9,0-1.2c0.3-0.3,0.9-0.6,1.6-0.7
						c1.4-0.3,3-0.2,4,0.2c-0.3-0.7-0.6-1.4-0.9-2.1l-0.4-1.1l-0.3-1.2c1.4,0.8,1.6,1.6,2.3,2.4c-1.5-1.7-0.4-1.3,0.6-0.8
						c1,0.5,2,1,0.7-0.6c-0.9-0.3-2-1.3-2.7-1.7c1.2,0.2,2.2,0,2.7-0.5c0.3-0.3,0.5-0.6,0.6-1c0.2-0.4,0.3-0.8,0.3-1.3l2,1.9
						c1-0.8,1.6-2,2.3-3.4c0.4-0.7,0.7-1.4,1.2-2c0.5-0.7,1-1.3,1.6-1.8c-1.7-0.2-4.8-3.9-4.3-5l3.1,2.9c-1.2-2.4-1.9-0.5-2.9-3.8
						c1.4-0.5,3.8,3.1,4.1,4.6l0.3-2.1c0.9,0.9,1,1.7,2,3c-0.6-1.2,0.6-0.8,1.6-0.6c1.1,0.2,1.9,0.3,1-1.8l0.8,1
						c2.7-1.9,3.3-4,5.7-5.7c-1.8-3.2-0.4-3.1-1-6.1c1.2,0.1,2.6,0.5,3.9,0.8c1.4,0.3,2.7,0.4,3.8-0.2c1.1-2.3-0.6-3.1-0.5-5.4
						c1.3,3.1,3.6,1.9,3.1,4.6c1.4-0.8,2.4-1.2,3.3-2c0.9-0.8,2-1.8,3.7-3.6c-0.8-1.2-1.5-1.6-1.5-2.8c0.6-0.7,2.1,0.9,2.4,2.5
						l-0.1,0.4c1.8-3,5.1-1.3,8.2,0.3c1.5,0.8,3,1.6,4.3,1.7c1.3,0.1,2.3-0.5,3-2.4l-0.2,0.4l3.5-4.2c2,0.3-0.8,2.7,0.9,4.5
						c1.8-3.1,3.6-3.1,5.3-2.9c1.7,0.2,3.4,0.7,5-1.3c2,4.7,4.4,4.3,7,3.4c2.6-0.9,5.3-2.1,7.5,0.9l-0.4-2.3
						c0.8-2.3,1.3,1.2,2.1,1.7c-0.2-1.8-1.2-2-0.7-3.3c2.1-0.8,4.2-1.1,6.4-1c1.1,0.1,2.2,0.2,3.3,0.4c1.1,0.2,2.3,0.5,3.5,0.8
						c4.7,1.3,9.3,3.2,13.8,4.1c3.2,0.5,1.6-12,5.7-6.6l-1.1,4.3c3.2-2.6,6.5-2.6,9.7-2.5c3.2,0.2,6.4,0.5,9.6-1.6
						c-0.4,1-0.5,2.3-1.1,2.2c1.2,3.2,4.8,0.4,5-2.2c0.9,0.4,0.1,2.3,0.6,3.6c1.2,1.9,3.6-3.8,4-0.6c0.1,0.5-0.4,1-0.7,1.2
						c1-1.4,3.9,0.7,3.4-2.9c2.2,1.9,4.6-1.2,6.3,1.2c1.7-3.9,3.8,2.4,4.9-3.2c-0.9,5.8,3.5,5.2,5.3,2.7c-0.7,1.7,1,2,0,4.4
						c1.6,0.1,3.2-0.7,3.4-3.7c0.5,1.9,1.1,2.5,1.8,2.6c0.7,0.1,1.5-0.4,2.2-0.9c1.5-0.9,2.9-1.5,2.6,3c5-2.1,9.6-2.8,13.8-2.5
						c-1.2,2.6-2.3,2.4-3.3,2.2c-1-0.2-2-0.3-3,2.6c2-0.6,4-1.8,5.9-2.4c0.9-0.3,1.8-0.6,2.6-0.5c0.8,0.1,1.6,0.4,2.2,1.2
						c0.4,1.1-1.7,1.9-2.4,2.7c0.5-0.1,1,0,1.4,0c0.4,0.1,0.8,0.2,1.2,0.4c0.7,0.3,1.3,0.7,1.9,1.2c0.3,0.2,0.6,0.4,0.9,0.6
						c0.3,0.2,0.6,0.4,0.9,0.6c0.7,0.3,1.5,0.5,2.6,0.4c-0.4,0.4-1,0.6-1.5,0.7c0.5,0.2,0.3,1.5,2.2-0.4l-0.9,0.1
						c1-1.7,2.8-2.8,4.7-3.5c1.8-0.7,3.7-0.9,4.5-1.6c-3.3,2.1-3,3.1-3.1,4.1c-0.1,1.1-0.5,2.1-4.7,4.5c0.6-0.1,1.9-0.5,3.3-1.6
						c0,0.8-0.8,1.5-2.7,2.3c2.2,0.7,4.3-1.5,5.2,0.2c-1.1,0.7-1.7,0.6-3.1,1.3c1.3-0.3,2.6-0.6,3.6-0.5c1,0.1,1.6,0.5,1.5,1.5
						c-0.7,0.3-1.6,0.9-1.8,0.4c0.7,1.1,2.7,1.4,4.4,2.2c0.9,0.4,1.5,0.8,2,1.5c0.5,0.6,0.5,1.4,0,2.2c-5.7,0.1-1.6,1.3-6.5,1.9
						c0.5,0.3,1.1,0.7,1.5,1.1c0.8-0.2,1.6-0.4,2.3-0.7c0,0.6,0.8,1.2,1.5,1.8c0.7,0.6,1,1.3,0.2,1.8c-0.6-0.4-1.3-0.8-1.9-1.2
						l0.3,1.2c0.1,0.4,0.1,0.8,0.2,1.3c0.7-0.3,1.4-0.7,2.1-1.1c1.2,0.9,2.6,1.1,3.7,1.3c1,0.2,1.6,0.4,0.7,1.4
						c-0.2-0.3-0.3,0.1-0.7,0.7c-0.4,0.5-1.3,1.1-2.7,1c0,0,0,0,0,0c0.6,0.6,1.3,1.3,1.5,1.9c0.2,0.6,0.1,1.2-0.7,1.5
						c-1.5-0.4-4.8-2.4-5.8-2.6c0.9,0.6,1.3,1.1,1.5,1.6c0.2,0.5,0.1,0.9,0,1.4c-0.1,0.5-0.1,1,0,1.5c0.1,0.6,0.4,1.2,1.2,2
						c-0.7-0.8-2.8-2.2-3.3-2.4c0.8,0.8,1.6,1.5,2.4,2.3c-1.3,0-1.7-0.2-3.3-1.4c-0.9,0.7,0.4,1.4,1.6,2.1c1.1,0.7,2,1.2,0.1,1.5
						c-0.1-0.3-0.5-0.6-0.7-1.2c-1.3,0.7-1.8,1.9-2.3,3.3c-0.6,1.3-1.2,2.6-2.8,2.8c-3.8-3.1,0.8-2.4-2.6-4.8
						c-0.5,0.7-0.8,1.7-1.1,2.7c-0.3,1.1-0.7,2.1-1,3.2c-0.4,1.1-0.9,2.1-1.5,2.9c-0.6,0.8-1.4,1.4-2.3,1.7l0.9,0
						c1.7,3,0.6,2.7-0.9,2.1c-1.5-0.6-3.3-1.5-3.3,0.3c0.2-0.7-1.5-3.6-1.2-2.9c-2.8,0.4-3.7,4.1-6.4,8l-0.4-1.8
						c-2.2-0.6-4.3,1.2-6.2,1.4c0.4,1.8-0.7,2,1.1,4c-9.6-6.3-6.7,9.7-15,4.5c0.5-0.3,0.5-2,0.1-1.8l-2.9,3.4c1.7,2.5,1.3,1.4,3.2,3
						c0.4,1.8,0,3.6-0.9,4.1c0.7-2.6-2.3-4.3-3.7-5.4c0.5,0.8,0.8,1.8,1.3,2.6c-4.4-3.7,2.5,5.5-1.8,3.7l-0.6-1.5
						c-0.6,1.2-0.6,3.6-1.8,3.7c-2-2.9,0.3-2-0.9-4.6c-1.4,0.9,0.1,7.4-2.9,5c0.2-1.2,1.1-1.7,1.3-2.9c-3.3-2.9-3-1.9-4.4-1.9l0.1,0
						l-3.4-0.4l1.1,0.7c2.2,9-3,3.4-2.9,10c-0.1-6.2-1-3.1-2.6-6.7c-1.1-0.7-2.7-1.3-2.9-2.4c0.2,3.4-3.1-1.3-2.7,3.7
						c-0.6-1.1-1.3,0.5-2.5-2.5c-1.1,1.6,1.3,1.8,1.9,3.3c-0.5,5.1-7.9-2-8.7,5c-1.9,3.6-0.7,7.7-2.7,11c-1.8-1.4-1.1-4.6-1.1-4.6
						c-2.3-1-3.3-0.2-4.1,1.8c-0.2-1.1-0.8-1.9-1.8-3c-1,0.8,1.1,4.6-1.2,3.5c-0.3-1.4-0.9-3.6-0.9-5.2c-0.9,1.7-1.3,4.4-2.3,6
						c-1.2-1.9-0.4-3.4-0.5-5c-1.2,1.6-3.3,3.5-2.5,6.9l1.5,0.8c-0.5,0.4-1.4-2.7-1.2-3.4c0.3-3.1,2.4,0.3,3,1.5l-0.7,1.2
						c1.9,3.2,2.8,2.5,3.5,1c0.7-1.5,1.1-4,2.2-4.2l1.3,5.3l0.3-5c1,1.1,2.5,3.7,1.8,4.9c2.6,1.8,0.5-2.3,3-0.2
						c0.3,0.4,0.4,0.6,0.3,0.9l0.8-2.1c0.2,1.2,1.8,3.4,0.6,3.1c3.9,1.7,2.5-5.6,5.1-2.3l-0.1,0.4c2.8-3.3-1.3-3.8-0.7-9.2l6,8
						l-1.4-3.7c0.4,0,1.3-0.1,1.8,1.4c0.2-3.1-1-1.4-1.3-4.1c3.3,2.4,4-3.8,7.2,1.6c-0.7-3-2.7-1.3-1.8-4.1c3.5,5.8,1.6-2.1,4.6-0.1
						c1.1,3.4-1.3,2.5,1.7,4.5c-1.7-5.8,3.7-0.4,4.5-2.1c-2.1-4.3,2-3.2,3.5-5.8c0.6,1.5,5.4,0.2,8.2,0.6l0.3,0.7
						c-1.8-4.4,0.7-4.8,1.8-6.4c1.3,2.6,1.5,3.7,1.3,5.3l1.4-0.8c-0.4-1.5-0.3-2.5,0.4-3.5l1.3,3.4c1.9-1.2,1.9-5.8,5.5-5
						c-1.4-3-6.3-7.1-4.7-10.5c0.9,1.5,2.5,4.2,2.1,5.2c0.1-0.3,0.1-1.7,0.9-1.3l0.4,3.2c1.8,0.6-0.6-2.5,0.4-2.8
						c1.2,2.3,1.5,1.3,2.4,3.1c-0.1,0.3-1.3-0.5-1.2,0.6c1.2-0.1,3.2,0.6,4.5,2.1c-0.8-1.2-1.6-3.1-1-3.7c1.8-1.2,2.1,2.4,3.9,2.9
						c-0.4-1.8,1.7-0.8,0-4.2c0.6-0.3,1.5,1.2,2.2,2c0.2-2,4.4-2.9,1.4-5.9l-0.4-0.1c0-0.1,0.1-0.1,0.1-0.2c0,0,0,0,0,0l0,0
						c0.7-2.6,2.7-3,4.8-3.2c2.1-0.2,4.4-0.3,5.6-2l0.7,1.1c0.6-1.2,1.6-2.1,2.4-3c0.8-1,1.4-2,1.3-3.6c0.5-0.4,2.7,1,3.3,2.4
						c0.9-1.9,0.2-3.1,3.6-3c-0.1,2.9,1.7,1.2-0.5,2.5c1.3-0.3,2.4-0.1,3.1-0.5c0.7-0.3,1.2-1.1,1-3.3c1.4,3.1,4.2,1.8,4.4,0.3
						c-1-0.1-2-0.3-2.9-0.5c0.7-1.2,1.7-1.9,2.8-2.5c0.9,1.2,1.7,2.3,2.6,3.5c1,0,1.7-0.3,2.3-0.7c0.6-0.4,0.9-1,1.2-1.6
						c0.3-0.6,0.4-1.4,0.5-2.1c0.1-0.8,0.1-1.6,0.1-2.3c0-1.5,0.1-2.8,0.7-3.8c0.6-1,1.9-1.4,4.3-1.3c-0.9-1.5-1.8-1-2.7-0.6
						c-0.9,0.4-1.9,0.7-3.1-0.8c0.2-0.2,0.5-0.4,0.9-0.5c0.3-0.2,0.7-0.3,1.2-0.4c0.9-0.2,1.9-0.4,2.9-0.5c2-0.2,3.8-0.6,4-1
						c1.9-1.4,0.8-2.9-0.5-4.4c-0.6-0.7-1.3-1.4-1.7-2.1c-0.4-0.7-0.3-1.4,0.2-2.3c-1.6,0.2-5.6-0.6-6.6-3.2c0.5-1,2.2-1.5,3.9-1.6
						c1.7-0.1,3.5,0.4,4,1.4c0,0.7-0.5,0.9-1,0.8c0.4,0.9,0.8,2.3,2.7,1.5l-1.4-0.7c0.5-0.3,0.8-0.7,1.2-1.2
						c0.3-0.5,0.6-1.1,0.9-1.6c0.6-1,1.2-1.8,2.5-1.2c-0.6-1.2-1.3-1.5-1.8-1.3c-0.5,0.2-1.1,0.9-1.6,1.7c0.7-0.9,1-1.7,1.1-2.5
						c0.1-0.8,0.1-1.5,0.1-2.3c0-0.7-0.2-1.5-0.2-2.3c0-0.8,0.1-1.7,0.3-2.7c-0.7,0.7-2.5,1.5-2.5,0.9c1-5.6-3.2-1.8-4.7-4.8
						c0.9-1.2,2.3-1.5,3.1-1.7c0.8-0.3,1.1-0.6-0.4-1.9c0.4-1.3,1.3-1.8,2.3-1.8c1-0.1,2.1,0.3,2.9,0.5c-1-0.6-1.5-1.3-1.7-2.1
						c-0.3-0.8-0.2-1.6-0.1-2.4c0.3-1.7,0.9-3.5,0.6-4.5c0.7,0.4,1.3,0.7,2,1.1c-1.2-0.7-1.6-1.5-2.1-2.4c-0.7,0.8-1.5,1.6-2.2,2.4
						c0-1.2-0.5-2,0.7-2.6c-1.2,0-2.2,0.9-3.3,1.6c-1.1,0.8-2.5,1.4-4.1,1.3c0.3-0.9-0.5-1.6-1.1-2.2c-0.6-0.6-0.8-1.3,0.7-2.7
						c0.6,2.1,1.4,1.4,2.3,0.5c0.9-0.9,2.1-2,3.4-0.6c-0.8-0.4-1.3-1.1-1.5-2.3c0.3-0.4,0.8-0.4,1.1-0.3c0.2-2.8-1.1-2.6-2.6-2
						c-1.6,0.6-3.5,1.5-4.8-0.1c2.1-1.1,2.6-3.6,1.8-3.8c1.2,1.3-2.3,3.1-4.6,3.3c-0.2-1.6-1-1.8-1.7-1.8c-0.8,0-1.5,0.3-1.9-0.2
						l0.5,1.6c-2,1.3-2.6,0.3-4.3-0.2c1.1-1.5,2,0,2-0.9c-2.1,0.9-2.1-0.5-2.3-2.2c-0.2-1.6-0.4-3.6-2.3-3.2c-0.2-2,2.3-3.7,1.9-5.2
						c-2.2,0.3-2.5-0.7-2.8-1.9c-0.3-1.2-0.7-2.5-2.7-2.1c-0.6,3.2-0.2,2.5-3.5,4.2l2.8,0.2c0.9,0.1,1.9,0.2,2.8,0.3
						c-1.7,0.7-3.4,1.5-5,2.3c1.3,0.7,3.7-0.1,4.2,0.8c-2.6,1.4-2.1,0.8-2.8,3.4c0.3-2.5-0.9-2.4-2.2-2.1c-1.3,0.3-2.7,0.8-3-1.1
						l3.4-6.9c-0.5-1.2-1.2-1.7-2.1-1.9c-0.9-0.2-1.9,0-2.9,0.2c-2.1,0.4-4.2,1.1-6.1-0.5l1,1.7c-1.5,2.7-2.7-0.5-4.5,0.3
						c0.9-2.4,0.2-3.6,0.1-5.3c-0.4,1.9-3.2-1-4.8,3.9c-0.4-1.2-0.7-2.5-1.1-3.7c-1.6-1.1-3,0.5-4.3,2.2c-1.3,1.7-2.6,3.4-4.1,2.7
						c1.4-2.6,0.3-4.6,2.8-6.2c-1.1-0.2-2-0.9-2.3,0.9c-0.2-0.8-1.1-0.1-2,0.5c-0.9,0.6-1.8,1.2-2.1-0.1c-0.6,1-1.1,3.7-2.3,3.3
						c-0.1-0.5,0.2-1.3,0.2-1.3c-0.2,1.3-2.1,1.5-1.4,4.4c-1.1-4.2-3.4-4.3-5.6-4.3c-2.2,0-4.4,0.2-5.5-3.3
						c-2.4,0.6-5.2,1.2-7.3,1.2c0.2-0.8,0.1-1.3,0.5-1c-2.7-2.6-2.3,7.2-5.3,4.3c-1.4-4.2,1.9-2.1,0.9-3.8c0-4.2-1-4-2.3-3.3
						c-1.3,0.7-2.7,1.8-3.8-0.7l0.6-0.5c-1.6-2.9-4.3,3-7,2.4c0,0,0.1-0.7,0-1.3c-2,4.3-5.5,5.7-8.1,6.9c0.8-3.3,1.2-1.8,0.7-5.1
						c-1.2,0.5,0.4,5.4-1.9,6.4c-0.8-1.8-2.5-3.4-2.8-6.9l2.2-0.2c-1.2-4.6-2.9,0.2-4.1-0.6l0.1-2c-3.4,0.7-3.3,5.8-6.9,5.6l0.4,1.5
						c-1.8,5.1-1.7-2.8-3.6,1l-0.8-5.1c-1.3,1.3-4.4,5.1-6.7,6.2c1.2-3.9,3.8-5.9,5.4-8.2c-1.3,0-4.4,0.5-4.9,3.1
						c0.5-0.5,1.1-1.8,1.6-1c-1.4,4.1-3.4,6.1-6,6.2c0-5-1.7-5.5-3.7-5.8c-2-0.3-4.3-0.2-5.5-4c-4.4,4-9.4-0.9-14.8,0.2
						c2.7,7.5-1.6,0.4-0.4,8.3c-1.2,0.6-1.7,0.5-1.8,0.1l-4.3-4.3c-1.2-2.2,1-1.9,0.7-3.6c-2.9-0.3-1.6-3.2-3.7-5.1
						c0.7,2.8-0.5,4.2-2.2,3.3l2.7,3.3c-3.3,4.7-4.3-6.2-7.7-1.4l0.9-2.7c-0.9,0.9-2.8,1.2-4.6,2.1c-1.8,0.9-3.5,2.5-3.9,5.8
						c-0.5-0.8-1.4-2.9-0.6-3.6c-1.3,0-2.5,0.6-3.7,1.3c-1.2,0.8-2.4,1.8-3.5,2.8c-1.1,0.9-2.3,1.8-3.4,2.2
						c-1.1,0.4-2.3,0.5-3.5-0.2l-0.1-2c-0.8,0.8-0.6,4-2.3,2.4c-0.2-0.8-0.2-2-0.6-2c-0.3,0.8-1.5,4-3.1,3.3l0.4-2.4
						c-2.8-0.5-4.4,1.5-5.5,3.9c-0.3,0.6-0.6,1.2-0.8,1.8c-0.3,0.6-0.5,1.3-0.8,1.9c-0.6,1.2-1.2,2.3-2,3c-1.2-2.6-2.9-3.9-4.8-4.4
						c-1.8-0.5-3.8-0.3-4.9-0.2L50,22.2c-1.4,0.6-2.6,1.5-3.5,2.6c-0.9,1.1-1.7,2.4-2.3,3.7c-1.3,2.7-2.2,5.7-3.7,8.3
						c-1.6-0.7-3.2-0.7-4.6-0.2C34.4,37,33,38,31.6,39c-1.4,1-2.7,2.3-4.1,3.4c-1.4,1.2-2.9,2.2-4.6,2.9c1.4-0.1,3.3,3,3.2,4.1
						c-0.9,0.2-0.7,1.6-0.8,2.5c-0.1,0.9-0.4,1.4-2.5-0.2l0.4-0.4c-2.4-1-3.8-0.6-4.8,0.3c-0.5,0.5-0.9,1-1.2,1.6
						c-0.3,0.6-0.6,1.2-0.9,1.8l5.8,3.6c-1.4,0.1-2.7,0.4-3.6,0.9c-0.9,0.6-1.6,1.3-2.1,2.1c-1.1,1.7-1.2,3.9-1.3,5.8
						c-0.1,1,0,2,0,2.9c0,0.9-0.1,1.8-0.3,2.5c-0.5,1.5-1.4,2.7-3.7,3.3c0.8,0.9,1.1,1.8,1.4,2.8c0.4,0.9,0.8,1.9,1.6,2.6l-3.7-0.2
						c-0.5,2.3-0.8,4.1-0.8,5.9c0,0.9,0.1,1.9,0.3,2.9c0.2,1,0.5,2.2,1,3.4C10,93.6,9,93.4,8.1,93.2c0.2,1.6,3,2,5.8,2.3
						c2.9,0.3,5.7,0.4,6.1,1.5c-1.7,0.7-3.4,1.4-5.1,2.2c0.4,1.2,0.4,2.4,0.5,3.7c0,1.3,0.1,2.6,0.3,3.9c0.2,1.3,0.6,2.5,1.3,3.5
						c0.8,1,1.8,1.9,3.5,2.4c-0.8,0.3-2.2,0.9-2.8,0.3c0.5,1.1,0.7,3.6,1.8,5.3c1.1,1.7,2.7,2.4,5.6,0c-2,1.4-1.4,2.6,0.3,3.5
						c1.6,0.9,4.4,1.7,6.2,2c-1,0.7-2,1.4-3,2.2c2.6-0.6,4.1-1.2,5.3-1.5c1.3-0.3,2.3-0.2,3.8,0.2c0.3,0.8-1.3,2.7-1.5,1.3
						c0.4,1.5,1.3,1.2,2.2,0.8c0.9-0.4,1.9-0.7,2.5,0.9c-0.7,0.4-1.5,0.9-2.2,1.3c1.9,1.6,2.4,0.5,4.9-1.1c1-0.2,1.8,0.5,2.2,1.7
						c0.4,1.2,0.5,2.8-0.1,4.3c1.2-1.6,3.5-3.4,4.3-2c-0.4,1.2-1.1,1.7-1.5,1.9c1.2,2,3,1.6,4.5,1.2c1.5-0.4,2.8-0.7,3.3,1.4
						c-0.4,1.1-0.4,1.8-0.4,2.2c-2.8-1.1-4.9-2.3-4.6-2.5c-1.4,3.1,0.8,4.6-2.9,8.1c1.5-0.8,3.5-2,5.4-2.9c1.9-0.9,3.5-1.3,4.4-0.2
						c0,0.3,0,0.7-0.1,1.2l-0.4,0.3c0.4,0.5,1,0.4,1.6,0c0.6,0.8,0.9,1.3,1.6,1.6c-0.5,2.7,2.3,2.3,3.4,2.7c0.9-3.5,2.2-2.6,1.6-5.9
						c0.1,0.3-0.3,0.4-1.1,0.3c-0.2,0.1-0.4,0-0.6,0.2c0-0.1,0.1-0.2,0.2-0.3c-0.8-0.1-1.8-0.3-2.9-0.6c1.5-1.5,2.8-2.7,3.5-0.4
						c1.2-2.1,2.5-4.3,3.1-5.3c0.1,5.3,2.5,8.7,2.3,11.9c2-0.6,4.2-0.5,6.4-1c2.1-0.6,4.2-1.8,5.8-5.1c1.1-0.8,0.9,2.1,1.3,3.2
						c-0.7,0.6-1.4,0.4-1.9,1.4c0.6-0.4,1.3-0.5,2.1-0.7c0.4-0.1,0.8-0.1,1.2-0.2c0.4-0.1,0.9-0.1,1.4-0.3c1.8-0.4,3.2-1.5,3.3-3.9
						c0.8,0.5,1.1,1,1.2,1.5c0.1,0.5,0,1-0.1,1.4c-0.1,0.4-0.2,0.7,0,0.8c0.3,0.1,0.6,0.1,1.4-0.2l-0.3,1.5c3.7,3.4,6,0.1,8.3-3.1
						c1.2-1.6,2.4-3.1,3.8-3.6c1.4-0.6,3.1-0.2,5.3,1.9c-0.6-0.5-0.9-0.7-1.1-1.5c4.5,1.5,8.6-0.3,12.7-2c4.1-1.7,8.1-3.3,13.2-1.4
						c2.7,0.5,2-2.5,2.5-5.2l1.9,3.5c0.2-1.7,0.5-3.4,0.7-5.1c1-2.2,3.2-0.5,5.5,0.8c2.3,1.3,4.5,2.1,5.3-1.6l-1.6-2.2
						c1.6-0.1,3.8-3.4,4.8-0.5c0-0.5-0.6-2.7,0.5-1.7l0.9,1.9l2-4.7c3.3,0.2,2.9,7.6,6.9,6.3c1.1-1.4,1.7-7.3,0.6-8.3
						c-0.6,0.2-2-0.5-2.9-2.4l0.9-1.6c-2.2-5.6-3.7-11.8-8.6-14.2l-0.8,4.4l-1.9-2.4l1.8-1c-2.2-2.1-1.9,0.5-2,2.4
						c-0.8-1.3-1.6-2.2-2.2-2.5l0.1,6.3c-1.2-2.1-0.9-4.7-2.9-5.3c0,2.9,3.1,4.4,2.1,6.8c-2.2-2.1-2.8-4.2-3.1-1.5
						c-0.8-1.4-0.9-2.4-0.7-3.2c-0.4,2.2-2.6,2-1.9,5.2c-2.4-2.7-3.4,2.4-5.5-2.9c0.2,1.4-0.2,4.9-1.1,5.6c-0.4-3.5-1.4-3.3-2.5-3
						c-1.1,0.3-2.4,0.5-3.5-3c0.5,3.1-0.5,4.2-1.6,5c-0.6,0.4-1.2,0.7-1.8,1.2c-0.6,0.5-1.1,1.1-1.4,2.1c0-0.5-0.1-1.5,0.2-1.3
						c-1.4-0.1-2.4-1.7-3.5-2.6c1.3,4.9-0.4,6.6-0.7,10c-2.9-4.3-0.6-6-2.3-10.5c1.2,4-1.7,4.7-0.3,7.9c-2-2.6-1.4-1.2-3-5.1
						c1.2,6.3-0.9,1.3-1.1,5.4c-2.5-2.7-1.7-5.7-3.3-3.4c-0.7-0.9-0.7-1.9-0.5-2.8C110.4,110.5,110.7,109.9,110.7,109.9z M65,119.3
						C65,119.3,65,119.2,65,119.3c0.5,0,0.8,0,1,0.1C65.8,119.3,65.5,119.3,65,119.3z M61.1,117.9c0.4,0.3,1,0.6,1.6,0.8
						c-0.3,1.2-0.9,2.4-1.3,2.2C61.9,120.2,61.3,119.1,61.1,117.9z M62.1,145c-0.9,0.3-1-0.5-0.9-1.3c0.4,0.1,0.9,0.1,1.5,0
						c0.1-0.1,0.2-0.3,0.2-0.4C62.7,144,62.4,144.6,62.1,145z"/>
					<path class="st1" d="M64.8,140.8c0.1,0,0.2-0.2,0.4-0.2c-0.1-0.3-0.1-0.7-0.2-0.9c-0.2,0.4-0.4,0.7-0.6,1
						C64.6,140.8,64.7,140.8,64.8,140.8z"/>
					<path class="st1" d="M229.8,113.8l0.1,0c-0.1-0.1-0.3-0.2-0.4-0.4C229.7,113.6,229.7,113.7,229.8,113.8z"/>
					<polygon class="st1" points="43.8,79.8 42.9,79.7 43.7,80 					"/>
					<path class="st1" d="M201.9,114.4c-0.2-0.3-0.4-0.5-0.7-0.7C201.3,113.9,201.6,114.2,201.9,114.4z"/>
					<path class="st1" d="M192,118.6l-1.9-0.5C191,118.5,191.6,118.6,192,118.6z"/>
					<path class="st1" d="M183.8,120.7c0.2,0.6,0.4,1.1,0.6,1.5c0,0,0,0,0,0L183.8,120.7z"/>
					<path class="st1" d="M241.2,51.8c-0.1,0-0.2-0.1-0.3,0C240.1,51.9,240.5,51.9,241.2,51.8z"/>
					<path class="st1" d="M256.9,75.3c-0.5-0.5-1.1-1-1.4-1.4C255.1,74.3,254.9,74.6,256.9,75.3z"/>
					<path class="st1" d="M208,43.6C208,43.6,208,43.6,208,43.6c-0.1-0.1-0.1-0.1-0.2-0.1L208,43.6z"/>
					<path class="st1" d="M255.9,72.5c-0.8,0.4-0.7,0.8-0.4,1.3C255.9,73.5,256.3,73,255.9,72.5z"/>
					<path class="st1" d="M151.3,133.9l-0.4,0c0.1,0.2,0.1,0.4,0.2,0.6L151.3,133.9z"/>
					<path class="st1" d="M151.1,134.5l-0.2,0.6C151,134.9,151.2,134.9,151.1,134.5z"/>
					<path class="st1" d="M150.4,136.2l0.5-1.2C150.6,135.1,150.2,135.1,150.4,136.2z"/>
					<path class="st1" d="M161.7,131.3l-0.4-1.3C161.3,130.3,161.5,130.7,161.7,131.3z"/>
					<path class="st1" d="M164.5,129.6c-0.8,0-2.9-1.8-3.6-0.6l0.3,1C160.9,128.1,164.8,132,164.5,129.6z"/>
					<path class="st1" d="M184,138.5l-3,0.3c1.1,1.1,2.5,2.5,1.5,3.3C187.6,144.3,180.5,139.6,184,138.5z"/>
					<path class="st1" d="M192.8,136.4c-1.1,1.3,0.9,1.8,1.2,2.6C194.3,137.4,194.4,137,192.8,136.4z"/>
					<path class="st1" d="M249,105.8l1.8,2.8C251.5,107.5,250,107.6,249,105.8z"/>
					<path class="st1" d="M246.8,85.2c-0.7-0.3-1.4-0.5-2.1-0.8l1.8,2.5L246.8,85.2z"/>
					<path class="st1" d="M269.9,94.3l0,0.9c0.2-1,0.3-2,0.5-2.9L269.9,94.3z"/>
					<path class="st1" d="M200.1,10.3l-0.1,4.1C200.9,13.7,201.6,9.2,200.1,10.3z"/>
					<path class="st1" d="M152.9,13c-0.6-2-1.9-3.3-2.6-1.3C151.4,12,152.4,13.5,152.9,13z"/>
					<path class="st1" d="M16.2,59c-0.2-0.6-0.5-1.2-0.7-1.8c0,0.9,0,1.8,0,2.7L16.2,59z"/>
				</g>
			</g>
		</g>
	</g>
</g>
</svg>
